<svg width="200" height="200" viewBox="0 0 200 200" fill="none" xmlns="http://www.w3.org/2000/svg">
<g clip-path="url(#clip0_154311_1491)">
<mask id="mask0_154311_1491" style="mask-type:alpha" maskUnits="userSpaceOnUse" x="101" y="130" width="119" height="40">
<path d="M138.925 130.471H219.069C219.859 130.471 220.034 131.581 219.283 131.825L101.571 169.953L108.78 151.83L138.925 130.471Z" fill="black"/>
</mask>
<g mask="url(#mask0_154311_1491)">
<circle cx="138.114" cy="143.082" r="53.1357" transform="rotate(40.747 138.114 143.082)" fill="url(#paint0_linear_154311_1491)"/>
</g>
<path d="M46.5239 86.4595L55.0196 105.039C55.4386 105.955 56.3214 106.573 57.3259 106.651L95.4881 109.643C96.2944 109.706 96.9837 109.069 96.9837 108.26V77.3983L46.5239 86.4595Z" fill="#0E72ED"/>
<path d="M152.032 84.5179V103.102C152.032 104.634 150.789 105.876 149.257 105.876H98.3718C97.6056 105.876 96.9846 105.255 96.9846 104.489V77.3983L152.032 84.5179Z" fill="#4793F1"/>
<path d="M46.5239 86.4596V146.732C46.5239 147.858 47.2047 148.873 48.2469 149.299L100.26 170.6V103.288L46.5239 86.4596Z" fill="#4793F1"/>
<path d="M46.5239 86.4596V116.979C46.5239 118.095 47.193 119.103 48.2219 119.536L85.5133 135.234C86.0939 135.479 86.7613 135.302 87.1158 134.782C88.856 132.226 93.7561 124.234 95.0177 113.643C95.8738 106.457 100.26 103.288 100.26 103.288L46.5239 86.4596Z" fill="#2538BF"/>
<path d="M152.032 84.5182V146.759C152.032 147.872 151.367 148.877 150.342 149.312L100.261 170.6V103.288L152.032 84.5182Z" fill="#0E72ED"/>
<path d="M152.032 84.5182V120.238C152.032 120.549 151.831 120.82 151.532 120.903C149.516 121.468 141.768 123.621 134.993 125.294C128.497 126.898 118.871 132.476 115.719 134.369C115.118 134.729 114.356 134.591 113.965 134.01C112.442 131.745 108.843 125.603 106.814 115.585C105.377 108.49 101.572 103.288 101.572 103.288L152.032 84.5182Z" fill="#2538BF"/>
<path d="M46.5243 86.4596L100.261 103.288C100.261 103.288 94.5603 107.233 92.3968 113.643C89.5149 122.182 84.6052 126.215 83.4642 127.063C83.3108 127.177 83.1275 127.213 82.9419 127.167C80.7429 126.632 66.1331 122.978 57.6648 118.498C48.4903 113.643 32.1072 109.76 32.1072 109.76C32.1072 109.76 38.0051 103.935 39.9711 95.5208C41.9371 89.0485 46.5243 86.4596 46.5243 86.4596Z" fill="#E7F1FD"/>
<path d="M152.032 84.5182L100.261 103.288C100.261 103.288 106.159 106.524 107.47 112.349C108.74 117.993 111.24 124.853 114.971 129.395C115.179 129.648 115.539 129.711 115.825 129.551C122.364 125.881 127.479 122.005 141.546 117.876C155.963 113.644 154.43 111.92 164.365 108.105C164.365 108.105 157.929 98.11 156.619 92.285C155.308 86.4599 152.032 84.5182 152.032 84.5182Z" fill="#A8CCF8"/>
</g>
<defs>
<linearGradient id="paint0_linear_154311_1491" x1="111.546" y1="189.575" x2="169.995" y2="97.9162" gradientUnits="userSpaceOnUse">
<stop stop-color="#2538BF"/>
<stop offset="0.927083" stop-color="#2538BF" stop-opacity="0"/>
</linearGradient>
<clipPath id="clip0_154311_1491">
<rect width="167.893" height="93.1108" fill="white" transform="translate(32.1072 77.3983)"/>
</clipPath>
</defs>
</svg>
