<svg xmlns="http://www.w3.org/2000/svg" width="234" height="81" viewBox="0 0 234 81" version="1.1"><path d="M 14.968 48.026 C 13.068 49.577, 11.735 51.049, 12.006 51.296 C 13.191 52.375, 19.769 55.376, 24.913 57.182 C 30.966 59.308, 61.202 66.131, 61.823 65.511 C 62.031 65.302, 60.244 64.627, 57.851 64.011 C 42.820 60.140, 28.663 53.971, 22.285 48.512 L 18.423 45.206 14.968 48.026 M 178 73.500 L 178 79 183.500 79 L 189 79 189 73.500 L 189 68 183.500 68 L 178 68 178 73.500" stroke="none" fill="#2fb362" fill-rule="evenodd"/><path d="M 80 0.633 C 78.625 0.894, 75.925 2.467, 74 4.130 C 70.749 6.938, 70.678 7.117, 73 6.652 C 80.995 5.050, 104.496 3.809, 119.797 4.180 C 137.776 4.616, 138.141 3.988, 121 2.110 C 109.899 0.893, 83.622 -0.053, 80 0.633 M 223 73.500 L 223 79 228.500 79 L 234 79 234 73.500 L 234 68 228.500 68 L 223 68 223 73.500" stroke="none" fill="#e53842" fill-rule="evenodd"/><path d="M 19.773 14.135 C 11.161 18.674, 3.688 24.769, 1.466 29.065 C -1.874 35.524, 0.461 43.199, 7.370 48.469 L 10.911 51.170 14.456 48.466 C 18.529 45.359, 18.505 45.454, 16.451 40.536 C 15.219 37.588, 15.128 36.142, 16.008 33.476 C 17.489 28.987, 23.708 22.746, 30.541 18.890 L 36.124 15.739 33.375 12.870 C 31.863 11.291, 29.923 10.014, 29.063 10.031 C 28.203 10.048, 24.023 11.895, 19.773 14.135 M 100 69.500 C 99.477 70.875, 98.561 72, 97.964 72 C 97.322 72, 97.006 73.530, 97.190 75.750 C 97.454 78.940, 97.873 79.528, 100 79.685 C 101.444 79.791, 101.761 79.655, 100.750 79.361 C 98.646 78.751, 98.417 75.161, 100.432 74.388 C 101.219 74.086, 101.834 73.087, 101.798 72.169 C 101.762 71.251, 102.066 69.713, 102.473 68.750 C 102.927 67.678, 102.776 67, 102.082 67 C 101.460 67, 100.523 68.125, 100 69.500 M 139.183 70.750 C 136.534 78.355, 136.538 79, 139.228 79 C 142.231 79, 145 76.148, 145 73.055 C 145 71.261, 144.569 70.879, 143.005 71.289 C 141.316 71.730, 141.102 71.441, 141.613 69.405 C 142.581 65.548, 140.616 66.636, 139.183 70.750 M 149.633 68 C 146.443 75.980, 145.004 82.479, 146.877 80.450 C 148.258 78.954, 151.214 69.126, 150.698 67.746 C 150.361 66.843, 150.068 66.913, 149.633 68 M 193 73.500 L 193 79 198.500 79 L 204 79 204 73.500 L 204 68 198.500 68 L 193 68 193 73.500 M 62.750 70.162 C 59.759 71.255, 59.108 73.444, 61.500 74.362 C 63.934 75.296, 63.268 77.209, 60.750 76.516 C 58.556 75.912, 58.549 75.935, 60.455 77.458 C 62.179 78.836, 62.583 78.846, 63.888 77.541 C 65.193 76.236, 65.160 75.835, 63.614 74.126 C 61.921 72.255, 61.966 72.166, 64.939 71.513 C 66.632 71.141, 67.762 70.424, 67.450 69.919 C 66.775 68.827, 66.346 68.849, 62.750 70.162 M 71.693 71.700 C 70.699 71.958, 69.462 73.285, 68.943 74.649 C 67.436 78.614, 67.907 79.691, 70.033 77.139 C 71.531 75.341, 72 75.162, 72 76.389 C 72 78.271, 73.557 78.525, 74.613 76.816 C 75.115 76.005, 75.557 76.237, 76.018 77.550 C 76.570 79.126, 76.914 78.789, 77.945 75.667 C 79.343 71.430, 78.821 70.074, 76.524 71.980 C 75.482 72.845, 75 72.890, 75 72.122 C 75 70.957, 74.706 70.919, 71.693 71.700 M 81.570 73.523 C 78.506 76.362, 78.644 78.620, 81.860 78.262 C 83.037 78.131, 84.007 78.581, 84.015 79.262 C 84.040 81.232, 85.967 77.772, 85.985 75.727 C 85.999 74.039, 85.868 74.037, 83.250 75.688 L 80.500 77.422 82.405 75.211 C 83.453 73.995, 84.915 73, 85.655 73 C 86.395 73, 87 72.550, 87 72 C 87 70.204, 84.349 70.947, 81.570 73.523 M 91.327 71.696 C 89.249 72.100, 86.286 77.612, 87.810 78.240 C 88.189 78.397, 90.216 76.832, 92.314 74.762 C 96.015 71.111, 95.916 70.802, 91.327 71.696 M 113.688 72.792 C 112.760 73.818, 112 75.361, 112 76.222 C 112 78.179, 114.983 79.417, 116.367 78.033 C 117.078 77.322, 116.791 76.988, 115.450 76.960 C 113.872 76.928, 114.037 76.629, 116.312 75.396 C 119.202 73.829, 119.476 71.722, 116.856 71.213 C 116.042 71.055, 114.617 71.766, 113.688 72.792 M 123.836 72.269 C 121.070 73.366, 118.437 77.534, 119.928 78.456 C 120.397 78.746, 121.516 77.862, 122.414 76.491 C 124.526 73.268, 126.221 73.273, 125.411 76.500 C 125.057 77.908, 125.216 79, 125.775 79 C 126.812 79, 127.963 75.747, 127.986 72.750 C 128.002 70.798, 127.648 70.757, 123.836 72.269 M 131.048 73.449 C 128.576 76.080, 128.854 79.377, 131.462 78.376 C 132.308 78.052, 133 78.284, 133 78.893 C 133 79.502, 133.450 80, 134 80 C 134.550 80, 135 78.595, 135 76.878 C 135 74.193, 134.786 73.933, 133.476 75.020 C 132.638 75.716, 131.679 76.013, 131.347 75.680 C 131.014 75.347, 131.925 74.536, 133.371 73.877 C 136.160 72.606, 136.888 71, 134.674 71 C 133.945 71, 132.313 72.102, 131.048 73.449 M 153.688 72.792 C 150.473 76.345, 152.875 80.344, 156.836 78.032 C 158.236 77.215, 158.104 77.050, 156 76.990 L 153.500 76.920 156.312 75.396 C 159.202 73.829, 159.476 71.722, 156.856 71.213 C 156.042 71.055, 154.617 71.766, 153.688 72.792 M 163.327 71.696 C 161.249 72.100, 158.286 77.612, 159.810 78.240 C 160.189 78.397, 162.216 76.832, 164.314 74.762 C 168.015 71.111, 167.916 70.802, 163.327 71.696 M 140.429 74.429 C 139.370 75.203, 138.851 76.184, 139.275 76.609 C 139.700 77.033, 140.798 76.631, 141.714 75.714 C 143.876 73.553, 142.926 72.603, 140.429 74.429" stroke="none" fill="#4d7cbe" fill-rule="evenodd"/><path d="M 228.250 12.357 L 225 13.289 225 33.622 L 225 53.954 227.433 55.548 C 229.325 56.788, 230.325 56.896, 231.933 56.036 C 234.217 54.814, 234.494 53.894, 233.021 52.421 C 232.468 51.868, 231.925 42.755, 231.771 31.433 L 231.500 11.424 228.250 12.357 M 67 13.652 C 60.828 15.685, 58 19.351, 58 25.315 C 58 29.374, 60.624 33.015, 65.766 36.090 C 74.413 41.262, 76.291 45.452, 71.400 48.658 C 69.143 50.136, 68.196 50.200, 64.234 49.140 C 60.555 48.156, 59.509 48.170, 58.849 49.209 C 56.204 53.379, 59.586 56, 67.615 56 C 76.034 56, 81 51.627, 81 44.212 C 81 38.148, 79.852 36.533, 71.941 31.462 C 64.839 26.910, 63.279 24.121, 66.200 21.200 C 67.650 19.750, 73.427 19.623, 75.973 20.986 C 77.513 21.810, 77.989 21.472, 78.877 18.922 C 79.890 16.018, 79.777 15.805, 76.502 14.436 C 73.056 12.997, 69.804 12.728, 67 13.652 M 121.750 17.396 C 119.504 18.205, 119 18.992, 119 21.693 C 119 24.333, 118.597 25, 117 25 C 115.533 25, 115 25.667, 115 27.500 C 115 29.056, 115.567 30, 116.500 30 C 117.704 30, 118.001 31.530, 118.006 37.750 C 118.015 50.997, 120.621 56.017, 127.473 55.986 C 133.505 55.959, 135 55.045, 135 51.383 C 135 47.570, 135.095 47.633, 131.443 49.021 C 126.945 50.732, 126 48.970, 126 38.878 L 126 30 129.500 30 C 132.567 30, 133 29.690, 133 27.500 C 133 25.333, 132.555 25, 129.668 25 C 126.550 25, 126.276 24.723, 125.418 20.703 C 124.529 16.543, 124.412 16.437, 121.750 17.396 M 174.750 17.244 C 172.467 18.010, 172 18.746, 172 21.583 C 172 24.333, 171.610 25, 170 25 C 168.533 25, 168 25.667, 168 27.500 C 168 29.056, 168.567 30, 169.500 30 C 170.716 30, 171 31.615, 171 38.532 C 171 51.327, 173.636 56, 180.852 56 C 185.775 56, 187 55.087, 187 51.418 C 187 48.241, 186.858 48.103, 184.509 48.997 C 179.685 50.831, 179 49.637, 179 39.393 L 179 30 182.500 30 C 185.567 30, 186 29.690, 186 27.500 C 186 25.256, 185.596 25, 182.055 25 C 178.114 25, 178.109 24.995, 177.805 20.661 C 177.506 16.408, 177.445 16.340, 174.750 17.244 M 92.077 25.767 C 87.476 28.305, 85 33.202, 85 39.767 C 85 45.763, 86.726 50.611, 89.852 53.396 C 92.539 55.790, 100.932 56.685, 104.980 55.008 C 114.291 51.151, 115.277 32.159, 106.465 26.385 C 102.576 23.837, 96.082 23.558, 92.077 25.767 M 147.643 24.983 C 136.852 28.387, 133.773 44.796, 142.432 52.750 C 145.412 55.487, 146.739 56, 150.836 56 C 156.514 56, 162 54.326, 162 52.593 C 162 51.927, 161.402 50.564, 160.671 49.565 C 159.585 48.080, 158.956 47.953, 157.237 48.873 C 153.966 50.624, 149.219 50.219, 147 48 C 142.903 43.903, 144.184 43.093, 155.250 42.785 L 165.500 42.500 165.220 38.142 C 164.561 27.901, 156.804 22.094, 147.643 24.983 M 200.643 24.997 C 194.381 26.942, 190.720 32.778, 190.604 41 C 190.515 47.333, 193.303 52.906, 197.522 54.828 C 202.571 57.129, 215 55.539, 215 52.593 C 215 51.927, 214.402 50.564, 213.671 49.565 C 212.585 48.080, 211.956 47.953, 210.237 48.873 C 205.450 51.435, 198 49.042, 198 44.943 C 198 43.148, 198.764 43, 208 43 L 218 43 217.996 38.250 C 217.992 33.189, 215.477 27.861, 212.285 26.153 C 209.373 24.594, 203.740 24.035, 200.643 24.997 M 94.391 32.342 C 91.834 34.543, 91.506 35.470, 91.552 40.368 C 91.615 47.106, 93.727 50, 98.582 50 C 103.199 50, 106 46.215, 106 39.976 C 106 31.619, 99.895 27.604, 94.391 32.342 M 146.557 33.223 C 145.701 34.445, 145 35.795, 145 36.223 C 145 36.650, 147.925 37, 151.500 37 C 157.093 37, 158 36.749, 158 35.200 C 158 32.405, 155.945 31, 151.857 31 C 149.122 31, 147.694 31.599, 146.557 33.223 M 199.557 33.223 C 198.701 34.445, 198 35.795, 198 36.223 C 198 36.650, 200.925 37, 204.500 37 C 209.467 37, 211 36.663, 211 35.571 C 211 31.008, 202.351 29.233, 199.557 33.223" stroke="none" fill="#000000" fill-rule="evenodd"/><path d="M 64.500 1.689 C 56.405 2.739, 43.751 5.292, 37.207 7.196 L 29.915 9.317 33.089 12.592 L 36.263 15.867 41.083 13.967 C 46.624 11.783, 59.413 8.493, 66 7.556 C 68.830 7.153, 71.799 5.828, 74 3.985 L 77.500 1.054 72.500 1.177 C 69.750 1.244, 66.150 1.475, 64.500 1.689 M 208 73.500 L 208 79 213 79 L 218 79 218 73.500 L 218 68 213 68 L 208 68 208 73.500" stroke="none" fill="#f27735" fill-rule="evenodd"/></svg>