<?xml version="1.0" standalone="no"?>
<!DOCTYPE svg PUBLIC "-//W3C//DTD SVG 20010904//EN"
 "http://www.w3.org/TR/2001/REC-SVG-20010904/DTD/svg10.dtd">
<svg version="1.0" xmlns="http://www.w3.org/2000/svg"
 width="484.000000pt" height="228.000000pt" viewBox="0 0 484.000000 228.000000"
 preserveAspectRatio="xMidYMid meet">

<g transform="translate(0.000000,228.000000) scale(0.100000,-0.100000)"
fill="#000000" stroke="none">
<path d="M1860 2001 c0 -6 4 -13 10 -16 6 -3 7 1 4 9 -7 18 -14 21 -14 7z"/>
<path d="M2391 1994 c0 -11 3 -14 6 -6 3 7 2 16 -1 19 -3 4 -6 -2 -5 -13z"/>
<path d="M1854 1955 c-3 -8 -4 -20 -2 -27 3 -7 7 -1 10 15 6 29 1 36 -8 12z"/>
<path d="M1841 1874 c0 -11 3 -14 6 -6 3 7 2 16 -1 19 -3 4 -6 -2 -5 -13z"/>
<path d="M1910 1861 c0 -6 4 -13 10 -16 6 -3 7 1 4 9 -7 18 -14 21 -14 7z"/>
<path d="M1881 1834 c0 -11 3 -14 6 -6 3 7 2 16 -1 19 -3 4 -6 -2 -5 -13z"/>
<path d="M2330 1841 c0 -6 4 -13 10 -16 6 -3 7 1 4 9 -7 18 -14 21 -14 7z"/>
<path d="M1906 1813 c-6 -14 -5 -15 5 -6 7 7 10 15 7 18 -3 3 -9 -2 -12 -12z"/>
<path d="M2307 1817 c-3 -8 3 -14 16 -15 12 0 17 2 12 6 -6 4 -13 11 -16 15
-4 4 -9 2 -12 -6z"/>
<path d="M2266 1763 c-6 -14 -5 -15 5 -6 7 7 10 15 7 18 -3 3 -9 -2 -12 -12z"/>
<path d="M4238 1743 c7 -3 16 -2 19 1 4 3 -2 6 -13 5 -11 0 -14 -3 -6 -6z"/>
<path d="M2252 1735 c4 -4 3 -14 -4 -22 -6 -7 -9 -15 -7 -18 3 -2 10 4 17 15
9 15 9 21 -1 26 -6 4 -9 4 -5 -1z"/>
<path d="M2415 1719 c-4 -6 -5 -12 -2 -15 2 -3 7 2 10 11 7 17 1 20 -8 4z"/>
<path d="M2441 1714 c0 -11 3 -14 6 -6 3 7 2 16 -1 19 -3 4 -6 -2 -5 -13z"/>
<path d="M4320 1710 c-9 -6 -10 -10 -3 -10 6 0 15 5 18 10 8 12 4 12 -15 0z"/>
<path d="M2020 1675 c-7 -9 -10 -18 -7 -21 3 -3 10 4 17 15 13 25 8 27 -10 6z"/>
<path d="M4380 1683 c0 -5 12 -20 28 -34 l27 -24 -25 30 c-14 17 -26 32 -27
34 -2 2 -3 0 -3 -6z"/>
<path d="M3385 1670 c-3 -6 1 -7 9 -4 18 7 21 14 7 14 -6 0 -13 -4 -16 -10z"/>
<path d="M2766 1662 c-3 -4 4 -9 15 -9 23 -2 25 3 4 10 -8 4 -16 3 -19 -1z"/>
<path d="M3086 1642 c-2 -4 4 -8 14 -8 10 0 16 4 14 8 -3 4 -9 8 -14 8 -5 0
-11 -4 -14 -8z"/>
<path d="M3572 1631 c-11 -6 -10 -10 4 -15 9 -3 19 -4 22 -1 3 3 0 5 -7 5 -7
0 -9 5 -6 10 7 12 4 12 -13 1z"/>
<path d="M1802 1610 c0 -14 2 -19 5 -12 2 6 2 18 0 25 -3 6 -5 1 -5 -13z"/>
<path d="M3480 1621 c0 -10 19 -25 25 -20 1 2 -3 10 -11 17 -8 7 -14 8 -14 3z"/>
<path d="M4443 1600 c0 -23 3 -28 9 -16 5 9 5 23 0 32 -6 12 -9 7 -9 -16z"/>
<path d="M1370 1616 c0 -2 7 -7 16 -10 8 -3 12 -2 9 4 -6 10 -25 14 -25 6z"/>
<path d="M2070 1611 c0 -6 4 -13 10 -16 6 -3 7 1 4 9 -7 18 -14 21 -14 7z"/>
<path d="M2998 1612 c8 -5 13 -13 12 -18 -1 -5 4 -10 12 -12 11 -3 11 -2 0 6
-8 5 -13 13 -12 18 1 5 -4 10 -12 12 -11 3 -11 2 0 -6z"/>
<path d="M4012 1606 c7 -8 15 -12 17 -11 5 6 -10 25 -20 25 -5 0 -4 -6 3 -14z"/>
<path d="M3130 1603 c0 -6 8 -17 18 -24 16 -13 16 -13 2 6 -8 11 -16 22 -17
24 -2 2 -3 0 -3 -6z"/>
<path d="M3630 1606 c0 -2 7 -7 16 -10 8 -3 12 -2 9 4 -6 10 -25 14 -25 6z"/>
<path d="M4120 1602 c0 -5 7 -9 15 -9 8 0 12 4 9 9 -3 4 -9 8 -15 8 -5 0 -9
-4 -9 -8z"/>
<path d="M3766 1587 c3 -10 9 -15 12 -12 3 3 0 11 -7 18 -10 9 -11 8 -5 -6z"/>
<path d="M3440 1556 c7 -7 13 -7 20 0 6 6 3 10 -10 10 -13 0 -16 -4 -10 -10z"/>
<path d="M1957 1543 c3 -7 6 -13 8 -13 2 0 5 6 8 13 3 8 -1 14 -8 14 -7 0 -11
-6 -8 -14z"/>
<path d="M1450 1540 c-9 -6 -10 -10 -3 -10 6 0 15 5 18 10 8 12 4 12 -15 0z"/>
<path d="M2075 1539 c-4 -6 -5 -12 -2 -15 2 -3 7 2 10 11 7 17 1 20 -8 4z"/>
<path d="M2671 1534 c0 -11 3 -14 6 -6 3 7 2 16 -1 19 -3 4 -6 -2 -5 -13z"/>
<path d="M2107 1533 c-4 -3 -7 -11 -7 -17 0 -6 5 -5 12 2 6 6 9 14 7 17 -3 3
-9 2 -12 -2z"/>
<path d="M2963 1533 c15 -2 37 -2 50 0 12 2 0 4 -28 4 -27 0 -38 -2 -22 -4z"/>
<path d="M4470 1530 c0 -5 5 -10 11 -10 5 0 7 5 4 10 -3 6 -8 10 -11 10 -2 0
-4 -4 -4 -10z"/>
<path d="M2481 1514 c0 -11 3 -14 6 -6 3 7 2 16 -1 19 -3 4 -6 -2 -5 -13z"/>
<path d="M1395 1497 c-10 -8 -15 -19 -11 -25 4 -7 2 -12 -3 -12 -6 0 -11 5
-11 12 0 6 -3 8 -7 4 -5 -4 1 -14 11 -22 15 -11 22 -11 34 -1 13 10 14 9 4 -9
-9 -18 -6 -25 22 -53 31 -30 33 -30 30 -9 -1 13 -3 45 -3 72 -1 37 -4 47 -15
43 -7 -3 -18 -1 -23 4 -5 5 -16 4 -28 -4z m48 -56 c-8 -49 -13 -52 -13 -8 0
30 -4 37 -20 37 -22 0 -27 16 -7 23 27 9 45 -15 40 -52z"/>
<path d="M4360 1491 c0 -6 4 -13 10 -16 6 -3 7 1 4 9 -7 18 -14 21 -14 7z"/>
<path d="M2246 1445 c-9 -26 -7 -32 5 -12 6 10 9 21 6 23 -2 3 -7 -2 -11 -11z"/>
<path d="M2492 1440 c0 -14 2 -19 5 -12 2 6 2 18 0 25 -3 6 -5 1 -5 -13z"/>
<path d="M4361 1444 c0 -11 3 -14 6 -6 3 7 2 16 -1 19 -3 4 -6 -2 -5 -13z"/>
<path d="M2823 1443 c9 -2 23 -2 30 0 6 3 -1 5 -18 5 -16 0 -22 -2 -12 -5z"/>
<path d="M1901 1414 c0 -11 3 -14 6 -6 3 7 2 16 -1 19 -3 4 -6 -2 -5 -13z"/>
<path d="M1260 1400 c-14 -11 -21 -20 -16 -20 5 0 3 -6 -3 -14 -9 -11 -9 -16
1 -22 7 -4 10 -4 6 1 -4 4 -3 14 3 22 6 7 8 13 4 13 -4 0 3 9 16 20 31 25 22
25 -11 0z"/>
<path d="M1310 1392 c6 -13 14 -21 18 -18 3 4 -2 14 -12 24 -18 16 -18 16 -6
-6z"/>
<path d="M4341 1396 c-7 -8 -8 -17 -3 -20 6 -3 15 1 21 8 7 8 8 17 3 20 -6 3
-15 -1 -21 -8z"/>
<path d="M3434 1386 c1 -8 5 -18 8 -22 4 -3 5 1 4 10 -1 8 -5 18 -8 22 -4 3
-5 -1 -4 -10z"/>
<path d="M3996 1373 c-6 -14 -5 -15 5 -6 7 7 10 15 7 18 -3 3 -9 -2 -12 -12z"/>
<path d="M1285 1370 c3 -5 8 -10 11 -10 2 0 4 5 4 10 0 6 -5 10 -11 10 -5 0
-7 -4 -4 -10z"/>
<path d="M2707 1369 c7 -7 15 -10 18 -7 3 3 -2 9 -12 12 -14 6 -15 5 -6 -5z"/>
<path d="M1332 1363 c-10 -4 -10 -8 -1 -19 9 -11 8 -14 -4 -14 -8 0 -17 5 -19
12 -5 14 -38 3 -38 -12 0 -6 4 -8 10 -5 5 3 17 2 25 -2 13 -8 12 -13 -10 -33
-18 -17 -28 -21 -33 -13 -5 8 -17 1 -35 -22 -26 -33 -66 -50 -52 -22 4 6 0 4
-8 -5 -8 -10 -17 -15 -20 -11 -4 3 -2 12 4 19 7 8 7 14 -1 19 -6 4 -9 1 -8 -7
2 -8 -6 -13 -20 -12 -18 1 -20 -1 -11 -12 6 -7 16 -12 22 -11 7 1 11 -4 9 -11
-1 -8 2 -11 9 -6 9 5 10 2 6 -9 -4 -10 6 -26 29 -46 18 -17 34 -34 34 -39 0
-11 39 -47 44 -41 3 2 36 33 75 68 39 35 67 69 64 74 -3 6 -1 7 5 3 7 -4 23 3
37 16 l25 24 -51 49 c-28 28 -57 50 -63 50 -6 1 -10 6 -8 13 1 7 1 12 0 11 -2
0 -9 -3 -16 -6z m38 -27 c0 -2 -8 -10 -17 -17 -16 -13 -17 -12 -4 4 13 16 21
21 21 13z m-193 -156 c-2 -23 -10 -17 -12 10 -1 10 2 17 6 14 4 -2 7 -13 6
-24z m63 -34 c-15 -15 -44 -17 -31 -2 6 7 18 13 26 13 11 0 12 -4 5 -11z m1
-49 c-10 -9 -11 -8 -5 6 3 10 9 15 12 12 3 -3 0 -11 -7 -18z"/>
<path d="M2180 1361 c0 -6 4 -13 10 -16 6 -3 7 1 4 9 -7 18 -14 21 -14 7z"/>
<path d="M3036 1357 c3 -10 9 -15 12 -12 3 3 0 11 -7 18 -10 9 -11 8 -5 -6z"/>
<path d="M4020 1361 c0 -6 4 -13 10 -16 6 -3 7 1 4 9 -7 18 -14 21 -14 7z"/>
<path d="M4154 1356 c11 -9 24 -16 30 -16 12 0 7 5 -24 19 -24 11 -24 11 -6
-3z"/>
<path d="M4349 1353 c-13 -16 -12 -17 4 -4 9 7 17 15 17 17 0 8 -8 3 -21 -13z"/>
<path d="M4541 1354 c0 -11 3 -14 6 -6 3 7 2 16 -1 19 -3 4 -6 -2 -5 -13z"/>
<path d="M3481 1346 c-9 -11 -9 -16 0 -22 7 -4 9 -3 5 4 -3 6 2 15 11 21 10 6
13 11 7 11 -6 0 -17 -6 -23 -14z"/>
<path d="M4290 1355 c0 -7 30 -13 34 -7 3 4 -4 9 -15 9 -10 1 -19 0 -19 -2z"/>
<path d="M3381 1334 c0 -11 3 -14 6 -6 3 7 2 16 -1 19 -3 4 -6 -2 -5 -13z"/>
<path d="M2908 1333 c6 -2 18 -2 25 0 6 3 1 5 -13 5 -14 0 -19 -2 -12 -5z"/>
<path d="M3568 1333 c6 -2 18 -2 25 0 6 3 1 5 -13 5 -14 0 -19 -2 -12 -5z"/>
<path d="M1792 1305 c0 -16 2 -22 5 -12 2 9 2 23 0 30 -3 6 -5 -1 -5 -18z"/>
<path d="M2501 1314 c0 -11 3 -14 6 -6 3 7 2 16 -1 19 -3 4 -6 -2 -5 -13z"/>
<path d="M3035 1320 c-3 -6 1 -7 9 -4 18 7 21 14 7 14 -6 0 -13 -4 -16 -10z"/>
<path d="M4084 1304 c-18 -14 -18 -15 4 -4 12 6 22 13 22 15 0 8 -5 6 -26 -11z"/>
<path d="M4340 1313 c0 -1 8 -7 18 -12 13 -7 19 -6 19 2 0 7 -9 13 -19 13 -10
0 -18 -1 -18 -3z"/>
<path d="M2735 1300 c-3 -5 -1 -10 4 -10 6 0 11 5 11 10 0 6 -2 10 -4 10 -3 0
-8 -4 -11 -10z"/>
<path d="M2765 1299 c-4 -6 -5 -12 -2 -15 2 -3 7 2 10 11 7 17 1 20 -8 4z"/>
<path d="M4332 1294 c10 -10 20 -16 22 -13 3 3 -5 11 -17 18 -21 13 -21 12 -5
-5z"/>
<path d="M3080 1296 c0 -2 7 -7 16 -10 8 -3 12 -2 9 4 -6 10 -25 14 -25 6z"/>
<path d="M3400 1290 c-9 -6 -10 -10 -3 -10 6 0 15 5 18 10 8 12 4 12 -15 0z"/>
<path d="M3062 1276 c7 -8 15 -12 17 -11 5 6 -10 25 -20 25 -5 0 -4 -6 3 -14z"/>
<path d="M1881 1262 c-1 -15 -5 -21 -13 -16 -7 5 -8 3 -3 -5 10 -18 28 2 22
25 -4 15 -5 14 -6 -4z"/>
<path d="M2155 1269 c-4 -6 -5 -12 -2 -15 2 -3 7 2 10 11 7 17 1 20 -8 4z"/>
<path d="M4076 1271 c-3 -5 1 -11 9 -14 9 -4 12 -1 8 9 -6 16 -10 17 -17 5z"/>
<path d="M3030 1266 c0 -2 7 -7 16 -10 8 -3 12 -2 9 4 -6 10 -25 14 -25 6z"/>
<path d="M3664 1250 c0 -13 4 -16 10 -10 7 7 7 13 0 20 -6 6 -10 3 -10 -10z"/>
<path d="M4320 1255 c-7 -9 -11 -17 -9 -20 3 -2 10 5 17 15 14 24 10 26 -8 5z"/>
<path d="M3705 1250 c3 -5 8 -10 11 -10 2 0 4 5 4 10 0 6 -5 10 -11 10 -5 0
-7 -4 -4 -10z"/>
<path d="M4122 1246 c7 -8 15 -12 17 -11 5 6 -10 25 -20 25 -5 0 -4 -6 3 -14z"/>
<path d="M3630 1230 c-9 -6 -10 -10 -3 -10 6 0 15 5 18 10 8 12 4 12 -15 0z"/>
<path d="M3578 1218 c5 -5 16 -8 23 -6 8 3 3 7 -10 11 -17 4 -21 3 -13 -5z"/>
<path d="M1029 1159 c-1 -8 -1 -18 0 -23 4 -19 -23 -24 -36 -8 -12 15 -13 14
-3 -6 6 -12 9 -26 6 -31 -3 -4 1 -8 8 -8 8 0 12 7 9 16 -4 13 -2 13 9 -1 14
-16 16 -16 31 0 13 13 17 13 17 2 0 -11 3 -11 12 -2 17 17 31 15 24 -3 -3 -8
-2 -14 2 -12 4 1 8 -1 10 -5 5 -18 1 -20 -14 -7 -26 21 -44 19 -54 -7 -5 -13
-16 -24 -24 -24 -15 0 -44 -40 -29 -40 19 -1 -24 -20 -45 -20 -12 0 -25 -7
-28 -15 -4 -8 -11 -12 -18 -9 -6 3 0 -4 14 -15 14 -11 21 -21 16 -21 -5 0 -1
-9 9 -20 10 -11 21 -17 25 -15 4 3 13 -2 20 -10 11 -13 10 -14 -6 -9 -19 7
-19 7 0 -14 10 -12 23 -19 27 -16 5 3 6 -1 3 -9 -4 -12 22 -46 29 -36 29 40
81 106 121 152 l49 58 -35 37 c-19 20 -52 56 -73 80 -21 23 -40 40 -43 37 -3
-3 -11 0 -19 6 -10 9 -13 8 -14 -2z m50 -27 c7 -7 10 -16 6 -20 -4 -4 -10 -1
-12 6 -4 10 -9 10 -23 -3 -17 -15 -18 -15 -16 9 1 28 20 31 45 8z m70 -98 c3
-4 -2 -4 -11 -1 -14 5 -17 1 -14 -23 2 -16 -1 -27 -6 -24 -5 3 -7 11 -5 17 2
7 0 20 -4 29 -7 14 -5 16 12 13 12 -3 24 -7 28 -11z m4 -29 c-3 -9 -8 -14 -10
-11 -3 3 -2 9 2 15 9 16 15 13 8 -4z m-216 -57 c-3 -8 -6 -5 -6 6 -1 11 2 17
5 13 3 -3 4 -12 1 -19z m43 2 c0 -5 -2 -10 -4 -10 -3 0 -8 5 -11 10 -3 6 -1
10 4 10 6 0 11 -4 11 -10z m22 -56 c8 -17 8 -17 -4 -3 -7 9 -18 14 -25 12 -6
-2 -14 0 -17 5 -3 5 4 8 16 7 11 -1 25 -10 30 -21z"/>
<path d="M3379 1133 c-13 -16 -12 -17 3 -5 10 8 19 9 22 3 4 -5 -2 -14 -11
-20 -17 -9 -17 -11 0 -28 10 -10 17 -13 17 -5 0 7 -5 12 -12 12 -6 0 -4 8 6
19 14 15 14 20 3 30 -11 9 -17 7 -28 -6z"/>
<path d="M3648 1119 c-15 -16 -23 -29 -19 -29 4 0 20 14 36 30 16 17 25 29 19
29 -5 -1 -21 -14 -36 -30z"/>
<path d="M1382 1069 l-74 -71 29 -31 c15 -17 52 -56 81 -87 l52 -55 -1 158 c0
86 -4 157 -7 157 -4 0 -40 -32 -80 -71z"/>
<path d="M3716 1123 c-6 -14 -5 -15 5 -6 7 7 10 15 7 18 -3 3 -9 -2 -12 -12z"/>
<path d="M3674 1108 l-19 -23 23 19 c21 18 27 26 19 26 -2 0 -12 -10 -23 -22z"/>
<path d="M1783 1113 c26 -2 68 -2 95 0 26 2 4 3 -48 3 -52 0 -74 -1 -47 -3z"/>
<path d="M1953 1113 c9 -2 25 -2 35 0 9 3 1 5 -18 5 -19 0 -27 -2 -17 -5z"/>
<path d="M2158 1113 c12 -2 32 -2 45 0 12 2 2 4 -23 4 -25 0 -35 -2 -22 -4z"/>
<path d="M2418 1113 c67 -2 177 -2 245 0 67 1 12 3 -123 3 -135 0 -190 -2
-122 -3z"/>
<path d="M2837 1113 c18 -2 50 -2 70 0 21 2 7 4 -32 4 -38 0 -55 -2 -38 -4z"/>
<path d="M3038 1113 c12 -2 32 -2 45 0 12 2 2 4 -23 4 -25 0 -35 -2 -22 -4z"/>
<path d="M3205 1109 c-4 -6 -5 -12 -2 -15 2 -3 7 2 10 11 7 17 1 20 -8 4z"/>
<path d="M4098 1113 c23 -2 61 -2 85 0 23 2 4 4 -43 4 -47 0 -66 -2 -42 -4z"/>
<path d="M4388 1113 c6 -2 18 -2 25 0 6 3 1 5 -13 5 -14 0 -19 -2 -12 -5z"/>
<path d="M4448 1113 c6 -2 18 -2 25 0 6 3 1 5 -13 5 -14 0 -19 -2 -12 -5z"/>
<path d="M4503 1113 c9 -2 23 -2 30 0 6 3 -1 5 -18 5 -16 0 -22 -2 -12 -5z"/>
<path d="M4652 1090 c0 -14 2 -19 5 -12 2 6 2 18 0 25 -3 6 -5 1 -5 -13z"/>
<path d="M3440 1090 c-9 -6 -10 -10 -3 -10 6 0 15 5 18 10 8 12 4 12 -15 0z"/>
<path d="M3330 1075 c0 -8 4 -15 10 -15 5 0 7 7 4 15 -4 8 -8 15 -10 15 -2 0
-4 -7 -4 -15z"/>
<path d="M3744 1069 c-3 -6 -2 -15 4 -21 6 -6 12 -6 17 3 6 8 4 10 -5 4 -10
-6 -12 -4 -7 8 7 19 2 23 -9 6z"/>
<path d="M3315 1050 c10 -11 20 -20 23 -20 3 0 -3 9 -13 20 -10 11 -20 20 -23
20 -3 0 3 -9 13 -20z"/>
<path d="M911 1037 c-6 -8 -8 -17 -4 -20 3 -4 1 -7 -5 -7 -7 0 -9 -7 -5 -17 6
-16 5 -17 -13 -3 -18 14 -18 14 -5 -3 16 -21 24 -15 39 31 12 35 10 39 -7 19z"/>
<path d="M3350 1039 c0 -5 5 -7 10 -4 6 3 10 8 10 11 0 2 -4 4 -10 4 -5 0 -10
-5 -10 -11z"/>
<path d="M927 1015 c-4 -8 -3 -16 1 -19 4 -3 9 4 9 15 2 23 -3 25 -10 4z"/>
<path d="M3378 1023 c7 -3 16 -2 19 1 4 3 -2 6 -13 5 -11 0 -14 -3 -6 -6z"/>
<path d="M1800 595 l0 -425 85 0 85 0 0 175 0 175 115 0 115 0 0 -175 0 -175
85 0 85 0 0 425 0 425 -85 0 -86 0 2 -167 1 -168 -114 0 -113 0 -3 168 -2 167
-85 0 -85 0 0 -425z"/>
<path d="M3385 1001 c-3 -6 3 -14 13 -20 14 -7 19 -6 19 4 0 7 -7 11 -15 7
-10 -3 -13 -1 -8 6 4 7 5 12 2 12 -3 0 -7 -4 -11 -9z"/>
<path d="M3528 953 c7 -3 16 -2 19 1 4 3 -2 6 -13 5 -11 0 -14 -3 -6 -6z"/>
<path d="M1183 854 c-104 -130 -102 -125 -69 -172 15 -22 43 -58 62 -81 l36
-41 113 0 c106 0 115 1 129 22 10 14 16 44 16 80 0 57 0 57 -69 130 -37 40
-83 90 -101 111 -17 20 -36 37 -40 37 -5 0 -39 -39 -77 -86z"/>
<path d="M811 916 c-8 -10 -8 -21 -1 -40 14 -38 12 -46 -5 -16 -14 25 -14 24
-11 -13 3 -29 1 -37 -9 -33 -10 3 -13 -4 -12 -26 1 -20 -3 -33 -13 -35 -9 -3
-11 -1 -5 4 12 10 13 33 1 52 -5 8 -4 16 5 22 7 4 10 11 7 15 -4 3 -16 -9 -27
-27 -24 -38 -26 -49 -10 -49 5 0 8 4 5 8 -2 4 -1 14 4 22 7 11 9 9 7 -8 -1
-14 -13 -30 -29 -40 -15 -9 -28 -22 -28 -29 0 -24 50 -94 62 -87 7 4 8 3 4 -5
-4 -6 2 -25 14 -42 21 -28 26 -30 78 -27 l55 3 33 59 c18 33 30 64 27 69 -3 6
-1 7 6 3 19 -12 24 23 6 50 -10 16 -22 23 -31 20 -9 -3 -12 -1 -9 5 4 5 -1 22
-10 36 -14 20 -19 23 -26 12 -7 -10 -8 -7 -7 10 2 16 -4 29 -17 36 -11 6 -21
17 -23 24 -1 7 -9 19 -16 27 -12 11 -16 11 -25 0z m27 -31 c15 -32 15 -48 2
-40 -5 3 -10 15 -10 26 0 10 -4 19 -10 19 -5 0 -10 5 -10 10 0 19 17 10 28
-15z m72 -109 c21 -27 -3 -17 -30 11 -21 22 -22 25 -4 15 11 -6 26 -18 34 -26z
m-165 -55 c-3 -6 -14 -11 -23 -11 -15 1 -15 2 2 15 21 16 32 13 21 -4z m35
-11 c0 -5 -5 -10 -11 -10 -5 0 -7 5 -4 10 3 6 8 10 11 10 2 0 4 -4 4 -10z
m-14 -42 c4 -7 4 -10 -1 -6 -4 4 -15 2 -24 -5 -14 -11 -14 -10 -2 6 16 20 18
21 27 5z"/>
<path d="M636 805 c-9 -26 -7 -32 5 -12 6 10 9 21 6 23 -2 3 -7 -2 -11 -11z"/>
<path d="M4223 721 c-67 -23 -118 -62 -154 -120 -40 -62 -52 -113 -47 -193 15
-198 232 -324 408 -235 103 51 102 49 40 112 l-53 54 -25 -19 c-54 -43 -140
-33 -187 21 -14 17 -25 35 -25 40 0 5 91 9 216 9 l217 0 -6 59 c-11 130 -92
236 -206 271 -77 24 -111 25 -178 1z m128 -141 c36 -10 88 -55 76 -66 -7 -7
-229 -6 -236 1 -13 13 75 74 109 75 8 0 31 -5 51 -10z"/>
<path d="M2674 706 c-114 -53 -176 -145 -176 -265 -2 -251 283 -387 481 -231
25 20 60 61 76 91 27 49 30 63 30 144 0 80 -3 95 -27 137 -36 59 -98 113 -156
132 -69 24 -167 21 -228 -8z m183 -132 c134 -64 99 -268 -48 -282 -93 -9 -159
50 -159 142 0 59 20 99 67 131 44 29 90 32 140 9z"/>
<path d="M3323 704 c-26 -15 -54 -44 -70 -72 -28 -47 -28 -49 -31 -254 l-3
-208 80 0 81 0 0 193 c0 175 2 196 18 210 25 23 48 21 66 -5 13 -18 16 -56 16
-209 l0 -187 75 -4 c65 -3 75 -1 79 15 2 10 2 84 -1 165 -8 202 10 258 75 237
35 -11 42 -49 42 -235 l0 -180 76 0 75 0 -3 203 c-3 189 -4 205 -27 251 -33
66 -95 106 -167 106 -60 0 -100 -13 -130 -41 -15 -14 -24 -17 -29 -10 -3 6
-24 20 -45 31 -56 28 -124 26 -177 -6z"/>
<path d="M576 693 c-6 -14 -5 -15 5 -6 7 7 10 15 7 18 -3 3 -9 -2 -12 -12z"/>
<path d="M545 660 c-3 -5 -1 -10 4 -10 6 0 11 5 11 10 0 6 -2 10 -4 10 -3 0
-8 -4 -11 -10z"/>
<path d="M1014 615 c-14 -25 -24 -48 -21 -51 2 -3 32 -4 65 -2 l60 3 -38 48
-39 48 -27 -46z"/>
<path d="M629 604 c-5 -15 -12 -31 -15 -35 -2 -5 15 -8 40 -7 l45 1 -26 33
c-14 19 -27 34 -29 34 -3 0 -9 -12 -15 -26z m21 -18 c0 -3 -4 -8 -10 -11 -5
-3 -10 -1 -10 4 0 6 5 11 10 11 6 0 10 -2 10 -4z"/>
<path d="M501 591 c-10 -7 -7 -9 12 -8 14 1 23 5 20 10 -6 9 -15 9 -32 -2z"/>
<path d="M246 426 c6 -15 4 -17 -6 -11 -9 6 -11 4 -5 -4 5 -9 10 -10 18 -2 8
8 7 14 -2 24 -10 10 -11 8 -5 -7z"/>
</g>
</svg>
