<?xml version="1.0" standalone="no"?>
<!DOCTYPE svg PUBLIC "-//W3C//DTD SVG 20010904//EN"
 "http://www.w3.org/TR/2001/REC-SVG-20010904/DTD/svg10.dtd">
<svg version="1.0" xmlns="http://www.w3.org/2000/svg"
 width="1563.000000pt" height="1563.000000pt" viewBox="0 0 1563.000000 1563.000000"
 preserveAspectRatio="xMidYMid meet">

<g transform="translate(0.000000,1563.000000) scale(0.100000,-0.100000)"
fill="#000000" stroke="none">
<path d="M7124 10300 c-93 -42 -192 -87 -219 -99 l-49 -22 175 -79 176 -80
216 97 c119 54 213 101 209 104 -6 6 -236 114 -307 144 -28 12 -40 8 -201 -65z"/>
<path d="M7825 10086 c-77 -34 -228 -103 -335 -151 -107 -48 -267 -120 -355
-160 -88 -39 -233 -105 -322 -145 l-163 -74 0 -425 c0 -234 3 -610 7 -836 l6
-410 241 -109 c133 -61 277 -126 321 -147 44 -20 177 -80 295 -134 118 -54
276 -126 351 -160 l136 -62 199 89 c110 49 285 127 389 175 105 47 237 107
295 133 58 26 183 82 278 125 l172 78 -1 511 c-1 281 -5 657 -8 836 l-6 324
-255 116 c-368 168 -657 299 -720 328 -30 13 -122 56 -204 93 -82 38 -156 69
-165 69 -9 0 -79 -29 -156 -64z m435 -152 c151 -69 430 -196 619 -282 l345
-156 -80 -38 c-68 -32 -406 -185 -589 -266 -32 -15 -170 -77 -305 -138 l-245
-110 2 -767 c2 -428 -1 -767 -6 -767 -5 0 -132 56 -282 125 -151 69 -430 196
-621 283 l-348 157 0 562 0 562 108 -48 c59 -27 137 -62 173 -79 l67 -30 7
-372 7 -372 42 -18 c22 -10 142 -63 266 -119 l225 -100 3 569 2 569 58 27 c31
14 116 52 187 84 72 32 211 95 310 140 99 44 217 97 263 117 45 20 79 40 75
43 -5 4 -93 46 -198 93 -104 47 -229 103 -276 125 l-87 40 -188 -85 c-104 -46
-221 -99 -260 -117 -39 -19 -81 -37 -93 -41 -13 -4 -19 -11 -14 -16 5 -5 87
-44 183 -88 96 -44 176 -83 177 -88 2 -4 -69 -40 -157 -80 l-161 -72 -354 161
c-196 89 -352 165 -348 169 5 4 64 32 133 63 69 30 339 152 600 270 261 118
477 215 480 215 3 1 129 -56 280 -125z"/>
<path d="M6325 9939 c-110 -50 -204 -94 -208 -98 -4 -4 70 -43 164 -85 144
-66 175 -76 194 -68 13 6 110 50 217 98 106 48 194 88 196 89 5 4 -334 155
-348 155 -8 -1 -105 -42 -215 -91z"/>
<path d="M4663 5766 c-39 -18 -56 -49 -55 -102 0 -53 15 -80 52 -99 91 -47
181 15 167 117 -10 77 -89 118 -164 84z"/>
<path d="M12434 5770 c-67 -27 -86 -125 -35 -182 27 -30 35 -33 86 -33 50 0
60 3 81 28 18 22 24 40 24 78 0 63 -13 87 -55 105 -38 16 -70 17 -101 4z"/>
<path d="M2090 5743 c-45 -23 -65 -77 -50 -132 17 -64 68 -91 145 -77 82 16
103 154 32 201 -39 25 -88 28 -127 8z"/>
<path d="M2353 5749 c-18 -5 -39 -19 -48 -31 -17 -26 -20 -109 -5 -139 30 -55
144 -65 187 -14 38 44 28 144 -16 172 -28 17 -82 23 -118 12z"/>
<path d="M7108 5667 l-98 -52 0 -328 c0 -353 -4 -382 -52 -408 -32 -17 -213
-24 -266 -10 -60 17 -74 44 -82 161 -14 190 -109 321 -272 372 -164 50 -361 2
-501 -123 -94 -84 -199 -246 -245 -379 -13 -36 -25 -38 -57 -5 -25 24 -25 25
-25 220 0 107 -2 195 -5 195 -3 0 -53 -25 -110 -56 l-105 -56 0 -124 c0 -201
-12 -214 -210 -214 -58 0 -122 5 -143 11 -62 17 -67 41 -67 299 0 121 -3 220
-7 220 -5 0 -54 -24 -110 -52 l-103 -53 0 -183 c0 -179 0 -183 -24 -207 -30
-30 -89 -39 -218 -33 -147 7 -153 14 -188 207 -13 75 -36 125 -90 197 -38 51
-151 144 -174 144 -6 0 -35 -39 -63 -87 l-52 -88 22 -15 c88 -61 141 -139 153
-228 9 -67 -8 -107 -48 -121 -17 -6 -90 -11 -163 -11 l-132 0 -52 -100 -53
-101 254 3 c254 3 255 3 293 29 l39 25 45 -25 c45 -26 49 -26 261 -26 205 0
217 1 258 23 l43 23 47 -23 c45 -22 57 -23 272 -23 214 0 227 1 271 23 l46 22
54 -25 54 -25 446 0 446 0 54 28 54 27 55 -28 55 -28 195 3 c189 3 197 4 245
30 91 48 144 123 164 233 16 88 15 795 -1 795 -7 -1 -57 -24 -110 -53z m-835
-460 c54 -23 104 -87 117 -152 14 -68 6 -135 -20 -167 -18 -23 -20 -23 -294
-26 -205 -2 -276 0 -276 8 0 28 76 153 127 209 105 116 247 169 346 128z"/>
<path d="M7608 5667 l-98 -52 0 -477 0 -478 110 0 110 0 0 530 c0 418 -3 530
-12 530 -7 -1 -57 -24 -110 -53z"/>
<path d="M9193 5668 l-92 -50 -3 -446 c-3 -436 -4 -448 -25 -487 -25 -47 -64
-85 -113 -111 -53 -28 -191 -26 -246 3 -135 72 -172 250 -89 431 l25 54 -22
-5 c-12 -4 -58 -14 -103 -23 -44 -9 -86 -21 -93 -27 -7 -5 -22 -41 -33 -79
-17 -56 -21 -88 -17 -172 3 -91 7 -109 36 -169 66 -135 183 -216 340 -239 149
-22 298 15 400 99 51 42 119 141 127 187 l6 31 1547 0 c1484 0 1550 1 1617 19
149 40 268 107 378 215 65 63 67 67 67 115 0 56 -24 104 -100 201 -114 144
-245 211 -394 203 -97 -5 -169 -36 -245 -104 l-51 -46 0 -94 c0 -52 3 -94 6
-94 3 0 29 18 56 40 106 84 212 116 304 90 50 -14 145 -94 177 -148 l17 -30
-42 -37 c-54 -46 -145 -89 -234 -112 -64 -17 -165 -18 -1540 -18 -1607 0
-1512 -4 -1534 58 -6 19 -10 172 -10 413 0 301 -3 384 -12 383 -7 -1 -54 -24
-105 -51z"/>
<path d="M13218 5667 l-98 -52 0 -477 0 -478 110 0 110 0 0 530 c0 418 -3 530
-12 529 -7 0 -57 -24 -110 -52z"/>
<path d="M2147 5400 c-133 -52 -207 -178 -207 -355 0 -179 89 -303 246 -342
51 -13 77 -14 114 -7 l48 10 -10 -25 c-25 -66 -94 -107 -208 -123 -178 -26
-325 35 -375 156 -23 56 -21 169 5 247 12 35 27 70 32 77 6 7 8 15 5 18 -5 5
-141 -18 -191 -33 -25 -7 -53 -74 -67 -161 -31 -186 54 -367 210 -451 91 -48
169 -65 306 -65 189 1 307 39 405 130 101 95 124 193 118 508 -6 248 -14 283
-88 357 -34 34 -63 52 -101 63 -72 22 -182 20 -242 -4z m166 -191 c38 -17 47
-51 47 -179 0 -111 -1 -120 -22 -134 -12 -9 -41 -16 -64 -16 -82 0 -131 74
-122 185 10 118 81 181 161 144z"/>
<path d="M3030 5411 c-93 -30 -155 -87 -199 -181 -24 -50 -26 -66 -26 -180 0
-119 2 -128 29 -183 34 -67 89 -120 155 -150 35 -16 66 -21 134 -22 82 0 87
-1 87 -21 0 -12 -10 -36 -22 -54 -63 -92 -155 -103 -311 -35 -16 7 -18 0 -15
-91 l3 -99 60 -22 c75 -27 202 -31 272 -7 101 34 178 118 213 232 18 57 20 93
20 326 0 147 -5 277 -10 298 -18 63 -70 129 -130 162 -48 27 -65 31 -145 33
-49 1 -101 -1 -115 -6z m157 -215 c28 -24 28 -26 31 -153 3 -107 1 -132 -12
-142 -23 -20 -92 -25 -127 -11 -89 37 -93 257 -5 311 42 26 79 24 113 -5z"/>
<path d="M13816 5323 l-49 -87 34 -25 c106 -80 154 -182 135 -286 -10 -54 -45
-65 -208 -65 l-133 0 -52 -100 -51 -100 246 0 c268 0 298 6 349 61 49 53 67
116 67 229 0 131 -25 214 -93 303 -44 59 -159 157 -184 157 -7 0 -34 -39 -61
-87z"/>
</g>
</svg>
