<?xml version="1.0" encoding="UTF-8"?>
<svg xmlns="http://www.w3.org/2000/svg" xmlns:xlink="http://www.w3.org/1999/xlink" width="250px" height="250px" viewBox="0 0 250 250" version="1.1">
<g id="surface1">
<path style=" stroke:none;fill-rule:nonzero;fill:rgb(0%,0%,0%);fill-opacity:1;" d="M 113.933594 85.242188 C 112.445312 85.914062 110.863281 86.632812 110.429688 86.824219 L 109.648438 87.175781 L 112.445312 88.441406 L 115.257812 89.71875 L 118.714844 88.167969 C 120.621094 87.304688 122.121094 86.554688 122.058594 86.503906 C 121.960938 86.410156 118.285156 84.679688 117.148438 84.203125 C 116.699219 84.007812 116.507812 84.074219 113.933594 85.242188 Z M 113.933594 85.242188 "/>
<path style=" stroke:none;fill-rule:nonzero;fill:rgb(0%,0%,0%);fill-opacity:1;" d="M 125.144531 88.664062 C 123.914062 89.207031 121.5 90.3125 119.789062 91.078125 C 118.074219 91.847656 115.515625 93 114.109375 93.636719 C 112.703125 94.261719 110.382812 95.320312 108.960938 95.957031 L 106.351562 97.140625 L 106.351562 103.9375 C 106.351562 107.679688 106.398438 113.691406 106.464844 117.308594 L 106.558594 123.863281 L 110.414062 125.605469 C 112.542969 126.582031 114.84375 127.621094 115.550781 127.960938 C 116.25 128.28125 118.378906 129.238281 120.265625 130.101562 C 122.152344 130.964844 124.679688 132.117188 125.878906 132.660156 L 128.054688 133.652344 L 131.238281 132.226562 C 132.996094 131.445312 135.792969 130.199219 137.457031 129.429688 C 139.136719 128.679688 141.25 127.71875 142.175781 127.304688 C 143.105469 126.886719 145.101562 125.992188 146.621094 125.304688 L 149.375 124.054688 L 149.355469 115.882812 C 149.339844 111.390625 149.277344 105.375 149.230469 102.515625 L 149.132812 97.332031 L 145.054688 95.476562 C 139.167969 92.789062 134.546875 90.695312 133.539062 90.230469 C 133.058594 90.023438 131.589844 89.335938 130.277344 88.746094 C 128.964844 88.136719 127.78125 87.640625 127.640625 87.640625 C 127.496094 87.640625 126.375 88.105469 125.144531 88.664062 Z M 132.101562 91.09375 C 134.515625 92.199219 138.976562 94.230469 142 95.605469 L 147.519531 98.101562 L 146.238281 98.707031 C 145.152344 99.21875 139.746094 101.667969 136.820312 102.960938 C 136.308594 103.199219 134.097656 104.191406 131.941406 105.167969 L 128.023438 106.925781 L 128.054688 119.195312 C 128.085938 126.039062 128.039062 131.460938 127.960938 131.460938 C 127.878906 131.460938 125.847656 130.566406 123.449219 129.464844 C 121.035156 128.359375 116.570312 126.328125 113.515625 124.933594 L 107.953125 122.425781 L 107.953125 104.449219 L 109.679688 105.214844 C 110.621094 105.648438 111.871094 106.207031 112.445312 106.480469 L 113.515625 106.960938 L 113.742188 118.859375 L 114.414062 119.144531 C 114.765625 119.304688 116.683594 120.15625 118.667969 121.046875 L 122.265625 122.648438 L 122.3125 113.546875 L 122.34375 104.449219 L 123.273438 104.019531 C 123.769531 103.792969 125.128906 103.1875 126.265625 102.675781 C 127.414062 102.160156 129.636719 101.15625 131.222656 100.4375 C 132.804688 99.730469 134.691406 98.882812 135.425781 98.5625 C 136.148438 98.242188 136.691406 97.921875 136.625 97.875 C 136.546875 97.8125 135.140625 97.140625 133.460938 96.390625 C 131.796875 95.636719 129.796875 94.742188 129.046875 94.390625 L 127.65625 93.75 L 124.648438 95.109375 C 122.984375 95.84375 121.113281 96.691406 120.488281 96.980469 C 119.867188 97.285156 119.195312 97.570312 119.003906 97.636719 C 118.796875 97.703125 118.699219 97.8125 118.777344 97.890625 C 118.859375 97.972656 120.167969 98.59375 121.707031 99.300781 C 123.242188 100.003906 124.519531 100.625 124.535156 100.707031 C 124.566406 100.769531 123.429688 101.347656 122.023438 101.988281 L 119.449219 103.136719 L 113.789062 100.5625 C 110.652344 99.140625 108.160156 97.921875 108.222656 97.859375 C 108.304688 97.796875 109.246094 97.347656 110.351562 96.851562 C 111.453125 96.371094 115.769531 94.421875 119.949219 92.535156 C 124.121094 90.648438 127.574219 89.097656 127.621094 89.097656 C 127.671875 89.078125 129.683594 89.992188 132.101562 91.09375 Z M 132.101562 91.09375 "/>
<path style=" stroke:none;fill-rule:nonzero;fill:rgb(0%,0%,0%);fill-opacity:1;" d="M 101.15625 91.015625 C 99.394531 91.8125 97.890625 92.519531 97.828125 92.582031 C 97.761719 92.644531 98.949219 93.269531 100.449219 93.941406 C 102.753906 94.996094 103.25 95.15625 103.554688 95.027344 C 103.761719 94.933594 105.3125 94.230469 107.023438 93.460938 C 108.71875 92.695312 110.125 92.054688 110.160156 92.039062 C 110.238281 91.972656 104.816406 89.558594 104.59375 89.558594 C 104.464844 89.578125 102.914062 90.230469 101.15625 91.015625 Z M 101.15625 91.015625 "/>
<path style=" stroke:none;fill-rule:nonzero;fill:rgb(0%,0%,0%);fill-opacity:1;" d="M 74.574219 157.753906 C 73.953125 158.039062 73.679688 158.539062 73.695312 159.382812 C 73.695312 160.230469 73.933594 160.664062 74.527344 160.96875 C 75.980469 161.71875 77.421875 160.726562 77.199219 159.097656 C 77.039062 157.867188 75.773438 157.210938 74.574219 157.753906 Z M 74.574219 157.753906 "/>
<path style=" stroke:none;fill-rule:nonzero;fill:rgb(0%,0%,0%);fill-opacity:1;" d="M 198.855469 157.6875 C 197.78125 158.121094 197.480469 159.6875 198.292969 160.601562 C 198.726562 161.082031 198.855469 161.128906 199.671875 161.128906 C 200.46875 161.128906 200.628906 161.082031 200.96875 160.679688 C 201.253906 160.328125 201.347656 160.042969 201.347656 159.433594 C 201.347656 158.425781 201.140625 158.039062 200.46875 157.753906 C 199.863281 157.496094 199.351562 157.480469 198.855469 157.6875 Z M 198.855469 157.6875 "/>
<path style=" stroke:none;fill-rule:nonzero;fill:rgb(0%,0%,0%);fill-opacity:1;" d="M 33.425781 158.121094 C 32.707031 158.488281 32.386719 159.351562 32.625 160.230469 C 32.898438 161.253906 33.710938 161.6875 34.945312 161.460938 C 36.253906 161.207031 36.59375 159 35.457031 158.25 C 34.832031 157.847656 34.050781 157.800781 33.425781 158.121094 Z M 33.425781 158.121094 "/>
<path style=" stroke:none;fill-rule:nonzero;fill:rgb(0%,0%,0%);fill-opacity:1;" d="M 37.632812 158.027344 C 37.34375 158.105469 37.007812 158.328125 36.863281 158.519531 C 36.59375 158.9375 36.542969 160.261719 36.785156 160.742188 C 37.265625 161.621094 39.085938 161.785156 39.773438 160.96875 C 40.382812 160.261719 40.222656 158.664062 39.515625 158.21875 C 39.070312 157.945312 38.207031 157.847656 37.632812 158.027344 Z M 37.632812 158.027344 "/>
<path style=" stroke:none;fill-rule:nonzero;fill:rgb(0%,0%,0%);fill-opacity:1;" d="M 113.675781 159.335938 L 112.109375 160.167969 L 112.109375 165.414062 C 112.109375 171.058594 112.046875 171.523438 111.277344 171.941406 C 110.765625 172.210938 107.871094 172.320312 107.023438 172.101562 C 106.066406 171.828125 105.839844 171.394531 105.714844 169.523438 C 105.488281 166.484375 103.96875 164.390625 101.363281 163.574219 C 98.738281 162.777344 95.589844 163.542969 93.351562 165.542969 C 91.847656 166.886719 90.167969 169.476562 89.433594 171.601562 C 89.222656 172.179688 89.03125 172.210938 88.519531 171.683594 C 88.121094 171.296875 88.121094 171.28125 88.121094 168.164062 C 88.121094 166.453125 88.089844 165.046875 88.039062 165.046875 C 87.992188 165.046875 87.195312 165.445312 86.28125 165.941406 L 84.601562 166.835938 L 84.601562 168.820312 C 84.601562 172.035156 84.410156 172.242188 81.246094 172.242188 C 80.316406 172.242188 79.292969 172.164062 78.957031 172.066406 C 77.964844 171.796875 77.886719 171.410156 77.886719 167.285156 C 77.886719 165.347656 77.835938 163.769531 77.773438 163.769531 C 77.691406 163.769531 76.910156 164.148438 76.015625 164.597656 L 74.367188 165.445312 L 74.367188 168.375 C 74.367188 171.234375 74.367188 171.296875 73.984375 171.683594 C 73.5 172.164062 72.558594 172.308594 70.496094 172.210938 C 68.144531 172.101562 68.050781 171.988281 67.488281 168.898438 C 67.28125 167.703125 66.914062 166.902344 66.050781 165.75 C 65.441406 164.933594 63.636719 163.445312 63.265625 163.445312 C 63.171875 163.445312 62.707031 164.070312 62.261719 164.839844 L 61.429688 166.246094 L 61.78125 166.484375 C 63.1875 167.460938 64.035156 168.707031 64.226562 170.132812 C 64.371094 171.203125 64.097656 171.84375 63.460938 172.066406 C 63.1875 172.164062 62.019531 172.242188 60.851562 172.242188 L 58.742188 172.242188 L 57.910156 173.84375 L 57.0625 175.457031 L 61.125 175.410156 C 65.1875 175.363281 65.203125 175.363281 65.808594 174.945312 L 66.433594 174.546875 L 67.152344 174.945312 C 67.875 175.363281 67.9375 175.363281 71.328125 175.363281 C 74.605469 175.363281 74.796875 175.347656 75.453125 174.996094 L 76.140625 174.625 L 76.894531 174.996094 C 77.613281 175.347656 77.804688 175.363281 81.246094 175.363281 C 84.667969 175.363281 84.875 175.347656 85.578125 174.996094 L 86.3125 174.640625 L 88.039062 175.441406 L 102.308594 175.441406 L 103.171875 174.996094 L 104.03125 174.5625 L 104.910156 175.007812 L 105.792969 175.457031 L 108.910156 175.410156 C 111.933594 175.363281 112.0625 175.347656 112.828125 174.929688 C 114.285156 174.164062 115.132812 172.960938 115.453125 171.203125 C 115.707031 169.796875 115.691406 158.488281 115.4375 158.488281 C 115.324219 158.503906 114.523438 158.871094 113.675781 159.335938 Z M 100.324219 166.691406 C 101.1875 167.0625 101.988281 168.082031 102.195312 169.125 C 102.417969 170.210938 102.289062 171.28125 101.875 171.796875 C 101.585938 172.164062 101.554688 172.164062 97.171875 172.210938 C 93.894531 172.242188 92.757812 172.210938 92.757812 172.082031 C 92.757812 171.636719 93.976562 169.636719 94.789062 168.742188 C 96.46875 166.886719 98.738281 166.039062 100.324219 166.691406 Z M 100.324219 166.691406 "/>
<path style=" stroke:none;fill-rule:nonzero;fill:rgb(0%,0%,0%);fill-opacity:1;" d="M 121.671875 159.335938 L 120.105469 160.167969 L 120.105469 175.441406 L 123.625 175.441406 L 123.625 166.964844 C 123.625 160.28125 123.578125 158.488281 123.429688 158.488281 C 123.320312 158.503906 122.519531 158.871094 121.671875 159.335938 Z M 121.671875 159.335938 "/>
<path style=" stroke:none;fill-rule:nonzero;fill:rgb(0%,0%,0%);fill-opacity:1;" d="M 147.019531 159.320312 L 145.550781 160.121094 L 145.503906 167.25 C 145.457031 174.226562 145.4375 174.417969 145.101562 175.042969 C 144.703125 175.792969 144.078125 176.402344 143.296875 176.816406 C 142.449219 177.265625 140.242188 177.230469 139.359375 176.769531 C 137.203125 175.617188 136.613281 172.773438 137.9375 169.875 L 138.335938 169.011719 L 137.984375 169.09375 C 137.796875 169.15625 137.058594 169.316406 136.339844 169.460938 C 135.636719 169.605469 134.964844 169.796875 134.851562 169.890625 C 134.742188 169.972656 134.5 170.546875 134.324219 171.15625 C 134.050781 172.050781 133.988281 172.5625 134.050781 173.90625 C 134.097656 175.363281 134.164062 175.648438 134.628906 176.609375 C 135.683594 178.769531 137.554688 180.0625 140.066406 180.433594 C 142.449219 180.785156 144.832031 180.191406 146.460938 178.847656 C 147.277344 178.175781 148.363281 176.59375 148.492188 175.855469 L 148.589844 175.363281 L 173.332031 175.363281 C 197.0625 175.363281 198.121094 175.347656 199.191406 175.058594 C 201.574219 174.417969 203.476562 173.347656 205.234375 171.621094 C 206.273438 170.609375 206.308594 170.546875 206.308594 169.78125 C 206.308594 168.886719 205.925781 168.117188 204.707031 166.566406 C 202.886719 164.261719 200.789062 163.191406 198.40625 163.316406 C 196.855469 163.398438 195.703125 163.894531 194.488281 164.980469 L 193.675781 165.71875 L 193.675781 167.222656 C 193.675781 168.054688 193.722656 168.726562 193.769531 168.726562 C 193.816406 168.726562 194.234375 168.4375 194.664062 168.082031 C 196.359375 166.742188 198.054688 166.230469 199.527344 166.644531 C 200.324219 166.871094 201.847656 168.148438 202.359375 169.011719 L 202.628906 169.492188 L 201.957031 170.085938 C 201.09375 170.820312 199.636719 171.507812 198.214844 171.875 C 197.191406 172.148438 195.578125 172.164062 173.585938 172.164062 C 147.886719 172.164062 149.402344 172.226562 149.054688 171.234375 C 148.957031 170.929688 148.890625 168.484375 148.890625 164.628906 C 148.890625 159.816406 148.84375 158.488281 148.703125 158.503906 C 148.589844 158.519531 147.839844 158.890625 147.019531 159.320312 Z M 147.019531 159.320312 "/>
<path style=" stroke:none;fill-rule:nonzero;fill:rgb(0%,0%,0%);fill-opacity:1;" d="M 211.390625 159.335938 L 209.824219 160.167969 L 209.824219 175.441406 L 213.34375 175.441406 L 213.34375 166.964844 C 213.34375 160.28125 213.296875 158.488281 213.152344 158.503906 C 213.039062 158.503906 212.242188 158.890625 211.390625 159.335938 Z M 211.390625 159.335938 "/>
<path style=" stroke:none;fill-rule:nonzero;fill:rgb(0%,0%,0%);fill-opacity:1;" d="M 34.335938 163.609375 C 32.210938 164.4375 31.023438 166.453125 31.023438 169.285156 C 31.023438 172.148438 32.449219 174.128906 34.960938 174.753906 C 35.777344 174.960938 36.191406 174.976562 36.785156 174.863281 L 37.550781 174.703125 L 37.390625 175.105469 C 36.992188 176.160156 35.886719 176.816406 34.066406 177.074219 C 31.21875 177.488281 28.867188 176.511719 28.066406 174.578125 C 27.699219 173.683594 27.730469 171.875 28.148438 170.628906 C 28.339844 170.066406 28.578125 169.507812 28.660156 169.394531 C 28.753906 169.285156 28.789062 169.15625 28.738281 169.109375 C 28.660156 169.027344 26.484375 169.394531 25.683594 169.636719 C 25.285156 169.746094 24.835938 170.820312 24.613281 172.210938 C 24.117188 175.183594 25.476562 178.078125 27.96875 179.421875 C 29.425781 180.191406 30.671875 180.464844 32.867188 180.464844 C 35.886719 180.445312 37.777344 179.839844 39.34375 178.382812 C 40.957031 176.863281 41.324219 175.296875 41.230469 170.257812 C 41.132812 166.292969 41.003906 165.734375 39.820312 164.550781 C 39.277344 164.007812 38.816406 163.71875 38.207031 163.542969 C 37.054688 163.191406 35.296875 163.222656 34.335938 163.609375 Z M 36.992188 166.664062 C 37.597656 166.933594 37.742188 167.476562 37.742188 169.523438 C 37.742188 171.296875 37.726562 171.441406 37.390625 171.667969 C 37.199219 171.808594 36.734375 171.921875 36.367188 171.921875 C 35.054688 171.921875 34.273438 170.738281 34.417969 168.964844 C 34.578125 167.078125 35.714844 166.070312 36.992188 166.664062 Z M 36.992188 166.664062 "/>
<path style=" stroke:none;fill-rule:nonzero;fill:rgb(0%,0%,0%);fill-opacity:1;" d="M 48.457031 163.429688 C 46.96875 163.910156 45.976562 164.820312 45.277344 166.324219 C 44.890625 167.125 44.859375 167.382812 44.859375 169.203125 C 44.859375 171.109375 44.890625 171.25 45.324219 172.128906 C 45.867188 173.203125 46.746094 174.050781 47.800781 174.53125 C 48.363281 174.785156 48.859375 174.863281 49.945312 174.882812 C 51.253906 174.882812 51.339844 174.898438 51.339844 175.214844 C 51.339844 175.410156 51.175781 175.792969 50.984375 176.082031 C 49.976562 177.550781 48.507812 177.730469 46.011719 176.640625 C 45.757812 176.527344 45.722656 176.640625 45.769531 178.097656 L 45.820312 179.679688 L 46.78125 180.03125 C 47.980469 180.464844 50.007812 180.527344 51.128906 180.140625 C 52.746094 179.601562 53.976562 178.257812 54.535156 176.433594 C 54.824219 175.523438 54.855469 174.945312 54.855469 171.21875 C 54.855469 168.867188 54.773438 166.789062 54.695312 166.453125 C 54.40625 165.445312 53.574219 164.390625 52.617188 163.863281 C 51.847656 163.429688 51.578125 163.367188 50.296875 163.335938 C 49.515625 163.316406 48.683594 163.351562 48.457031 163.429688 Z M 50.96875 166.871094 C 51.417969 167.25 51.417969 167.285156 51.464844 169.316406 C 51.511719 171.027344 51.480469 171.429688 51.273438 171.585938 C 50.90625 171.90625 49.800781 171.988281 49.242188 171.761719 C 47.820312 171.171875 47.753906 167.652344 49.164062 166.789062 C 49.835938 166.371094 50.425781 166.40625 50.96875 166.871094 Z M 50.96875 166.871094 "/>
<path style=" stroke:none;fill-rule:nonzero;fill:rgb(0%,0%,0%);fill-opacity:1;" d="M 220.957031 164.839844 L 220.171875 166.230469 L 220.71875 166.628906 C 222.410156 167.910156 223.179688 169.539062 222.875 171.203125 C 222.714844 172.066406 222.15625 172.242188 219.550781 172.242188 L 217.421875 172.242188 L 216.59375 173.84375 L 215.773438 175.441406 L 219.710938 175.441406 C 223.996094 175.441406 224.472656 175.347656 225.292969 174.464844 C 226.074219 173.617188 226.363281 172.613281 226.363281 170.804688 C 226.363281 168.707031 225.964844 167.382812 224.875 165.957031 C 224.171875 165.015625 222.332031 163.445312 221.933594 163.445312 C 221.820312 163.445312 221.390625 164.070312 220.957031 164.839844 Z M 220.957031 164.839844 "/>
</g>
</svg>
